<?xml version="1.0" encoding="UTF-8"?>
<svg width="149px" height="37px" viewBox="0 0 149 37" version="1.1" xmlns="http://www.w3.org/2000/svg" xmlns:xlink="http://www.w3.org/1999/xlink">
    <!-- Generator: Sketch 42 (36781) - http://www.bohemiancoding.com/sketch -->
    <title>Artboard</title>
    <desc>Created with Sketch.</desc>
    <defs></defs>
    <g id="Page-1" stroke="none" stroke-width="1" fill="none" fill-rule="evenodd">
        <g id="Artboard" fill-rule="nonzero" fill="#FFFFFF">
            <g id="ocha-logo">
                <g id="Group">
                    <path d="M48.4,19.4 C48.4,12.3 53.6,6.7 61,6.7 C68.3,6.7 73.6,12.2 73.6,19.4 C73.5,26.5 68.3,32 61,32 C53.6,32 48.4,26.5 48.4,19.4 M70.1,19.4 C70.1,14.1 66.5,9.8 61,9.8 C55.5,9.8 51.9,14.1 51.9,19.4 C51.9,24.7 55.5,29 61,29 C66.5,29 70.1,24.6 70.1,19.4" id="Shape"></path>
                    <path d="M95,12.5 C93.6,10.7 91.4,9.7 89.2,9.7 C83.8,9.7 80.2,14 80.2,19.5 C80.2,24.6 83.6,28.9 89.2,28.9 C92,28.9 94.1,27.7 95.5,25.7 L98.3,27.8 C97.6,28.8 94.7,32 89.2,32 C81.5,32 76.8,25.6 76.8,19.5 C76.8,12 81.9,6.6 89.4,6.6 C92.6,6.6 95.9,7.8 97.8,10.3 L95,12.5 Z" id="Shape"></path>
                    <polygon id="Shape" points="102.2 7.3 105.5 7.3 105.5 17.3 117.9 17.3 117.9 7.3 121.2 7.3 121.2 31.4 117.9 31.4 117.9 20.4 105.5 20.4 105.5 31.4 102.2 31.4"></polygon>
                    <path d="M135,7.3 L138,7.3 L148.3,31.4 L144.5,31.4 L142.1,25.4 L130.6,25.4 L128.2,31.4 L124.4,31.4 L135,7.3 Z M140.8,22.6 L136.3,11.5 L136.2,11.5 L131.6,22.6 L140.8,22.6 Z" id="Shape"></path>
                    <path d="M17.6,15.6 C17.6,13.8 19.1,12.3 20.9,12.3 C22.7,12.3 24.2,13.8 24.2,15.6 C24.2,17.4 22.7,18.9 20.9,18.9 L20.9,18.7 L20.9,18.5 C22.5,18.5 23.8,17.2 23.8,15.6 C23.8,14 22.5,12.7 20.9,12.7 C19.3,12.7 18,14 18,15.6 C18,17.2 19.3,18.5 20.9,18.5 L20.9,18.7 L20.9,18.9 C19.1,18.9 17.6,17.4 17.6,15.6" id="Shape"></path>
                    <path d="M15,15.6 C15,12.3 17.7,9.6 21,9.6 C24.3,9.6 27,12.3 27,15.6 C27,18.9 24.3,21.6 21,21.6 L21,21.4 L21,21.2 C24.1,21.2 26.6,18.7 26.6,15.6 C26.6,12.5 24.1,10 21,10 C17.9,10 15.4,12.5 15.4,15.6 C15.4,18.7 17.9,21.2 21,21.2 L21,21.4 L21,21.6 C17.7,21.6 15,18.9 15,15.6" id="Shape"></path>
                    <path d="M12.1,15.6 C12.1,10.7 16.1,6.7 21,6.7 C25.9,6.7 29.9,10.7 29.9,15.6 C29.9,20.5 25.9,24.5 21,24.5 L21,24.3 L21,24 C25.7,24 29.4,20.2 29.5,15.6 C29.5,10.9 25.7,7.2 21,7.1 C16.3,7.1 12.6,10.9 12.5,15.6 C12.5,20.3 16.3,24 21,24 L21,24.2 L21,24.4 C16.1,24.5 12.1,20.5 12.1,15.6" id="Shape"></path>
                    <path d="M9.3,15.6 C9.3,9.2 14.5,4 21,4 C27.4,4 32.6,9.2 32.6,15.6 C32.6,22 27.4,27.2 21,27.2 L21,27 L21,26.8 C27.2,26.8 32.2,21.8 32.2,15.6 C32.2,9.4 27.2,4.4 21,4.4 C14.8,4.4 9.8,9.4 9.8,15.6 C9.8,21.8 14.8,26.8 21,26.8 L21,27 L21,27.2 C14.5,27.2 9.3,22 9.3,15.6" id="Shape"></path>
                    <path d="M6.3,15.6 C6.3,7.5 12.9,0.9 21,0.9 C29.1,0.9 35.7,7.5 35.7,15.6 C35.7,23.7 29.1,30.3 21,30.3 L21,30.1 L21,29.9 C28.9,29.9 35.3,23.5 35.3,15.6 C35.3,7.7 28.9,1.3 21,1.3 C13.1,1.3 6.7,7.7 6.7,15.6 C6.7,23.5 13.1,29.9 21,29.9 L21,30.1 L21,30.3 C12.8,30.3 6.3,23.7 6.3,15.6" id="Shape"></path>
                    <rect id="Rectangle-path" x="20.7" y="1.1" width="0.4" height="11.4"></rect>
                    <polygon id="Shape" points="10.6 5.5 10.9 5.2 18.9 13.2 18.6 13.5"></polygon>
                    <rect id="Rectangle-path" x="6.5" y="15.4" width="11.4" height="0.4"></rect>
                    <polygon id="Shape" points="10.6 25.7 18.6 17.7 18.9 18 10.9 26"></polygon>
                    <rect id="Rectangle-path" x="20.7" y="18.7" width="0.4" height="11.4"></rect>
                    <rect id="Rectangle-path" transform="translate(27.357350, 21.551300) rotate(-44.829839) translate(-27.357350, -21.551300) " x="26.8573526" y="15.9013293" width="0.399997928" height="11.2999415"></rect>
                    <rect id="Rectangle-path" x="24.1" y="15.4" width="11.4" height="0.4"></rect>
                    <polygon id="Shape" points="23 13.2 31.1 5.2 31.3 5.5 23.3 13.5"></polygon>
                    <path d="M18.7,16.5 C18.8,16.5 18.8,16.6 18.8,16.7 L18.9,16.7 C19.1,16.5 19.2,16.2 19.3,16 C19.3,16 19.4,16 19.4,15.9 C19.4,15.8 19.2,15.7 19.2,15.6 C19.1,15.8 18.9,15.6 18.8,15.7 L18.8,15.8 L18.9,15.8 L18.9,16 L18.9,16 C18.8,15.9 18.7,15.9 18.6,15.9 C18.7,15.9 18.6,15.9 18.6,16 C18.4,16 18.2,16 18.1,16.1 C18,16.1 18,16.1 17.9,16 C17.8,16.1 17.8,16.2 17.7,16.2 L17.6,16.1 C17.7,16 17.8,16 17.8,15.9 L17.8,15.6 C17.9,15.5 17.9,15.4 18,15.4 C18.1,15.4 18.3,15.5 18.4,15.4 L18.5,15.5 C18.5,15.5 18.5,15.5 18.5,15.6 C18.4,15.7 18.3,15.7 18.3,15.8 C18.3,15.9 18.3,15.9 18.4,15.9 C18.5,15.9 18.5,15.8 18.6,15.8 C18.6,15.7 18.7,15.8 18.7,15.8 L18.7,15.8 L19,15.8 C19.1,15.8 19.1,15.5 19,15.4 L19,15.3 C19,15.3 19,15.3 19,15.2 C19,15.1 19.2,15.1 19.2,15.2 L19.2,15.3 C19.2,15.3 19.2,15.4 19.3,15.3 L19.3,15.3 L19.3,15.1 C19.3,15.1 19.4,15.2 19.5,15.2 L19.7,15.2 C19.8,15.2 19.8,15.1 19.7,15 L19.6,15 C19.5,15.1 19.4,15.1 19.4,15.1 C19.3,15.1 19.3,15 19.2,15 C19.1,15 19,15.1 19,15 C18.9,15 18.9,14.9 18.9,14.8 L19,14.7 C19.1,14.7 19.2,14.7 19.3,14.6 C19.3,14.5 19.4,14.4 19.4,14.4 L19.5,14.4 C19.6,14.4 19.7,14.4 19.8,14.3 C19.9,14.3 20,14.2 20.1,14.1 C20.2,14.1 20.2,14 20.3,14 C20.3,14 20.3,13.9 20.4,13.9 L20.4,13.4 C20.4,13.3 20.5,13.3 20.5,13.3 L20.4,13.3 C20.4,13.3 20.3,13.2 20.4,13.2 C20.4,13.2 20.6,13.2 20.6,13.1 C20.7,13 20.6,12.8 20.5,12.8 C20.4,12.7 20.3,12.8 20.2,12.8 C20.2,12.8 20.2,12.9 20.1,12.9 C20,12.9 19.9,12.8 20,12.7 L20,12.7 C20,12.7 20,12.7 20,12.6 L19.9,12.6 L19.6,12.9 C19.6,12.9 19.6,12.9 19.6,13 L19.6,13 C19.6,13.1 19.6,13.2 19.5,13.2 L19.5,13.2 L19.4,13.2 C19.4,13.3 19.6,13.3 19.5,13.4 C19.4,13.5 19.3,13.5 19.1,13.6 C18.8,13.7 18.5,13.6 18.2,13.6 L17.7,13.6 C17.6,13.6 17.6,13.7 17.5,13.8 L17.5,13.8 L17.5,13.6 C17.5,13.5 17.4,13.6 17.4,13.5 C17.2,13.1 16.7,13.2 16.3,13.2 C16.2,13.2 16.2,13.3 16.2,13.3 C16.1,13.4 16,13.3 15.9,13.3 L15.8,13.4 C15.7,13.4 15.6,13.3 15.5,13.4 C15.4,13.5 15.4,13.5 15.3,13.5 L15.3,13.6 L15.2,13.6 C15.1,13.6 14.9,13.6 14.9,13.7 L14.9,13.7 C14.9,13.8 14.9,14 14.8,14 C14.7,14 14.5,14 14.4,14.1 C14.3,14.1 14.3,14.2 14.2,14.2 C14,14.6 13.8,14.9 13.8,15.4 L13.8,15.4 L13.8,15.5 C13.6,15.9 13.5,16.1 13.2,16.6 C13.1,16.8 13,17.2 13.2,17.3 C13.3,17.4 13.2,17.5 13,17.5 C12.8,17.5 12.6,17.5 12.6,17.3 C12.6,17.2 12.4,17.2 12.3,17.2 L12.3,17.2 L12.2,17.2 L11.9,17.2 C11.7,17.2 11.7,17.5 11.6,17.6 C11.5,17.7 11.3,17.7 11.3,17.8 L11.3,18 C11.3,18 11.2,18 11.2,18.1 L11.2,18.2 C11.2,18.4 11.1,18.5 11.2,18.7 L11.2,18.8 C11.2,19 11.2,19.1 11.1,19.3 C11,19.5 10.8,19.5 10.6,19.5 L10.3,19.5 L9.7,19.5 L9.6,19.5 C9.5,19.5 9.5,19.4 9.4,19.4 C9.3,19.3 9.3,19.2 9.3,19.2 C9.2,19.1 9,19.2 8.9,19.3 C9,19.3 8.9,19.4 8.9,19.4 C8.8,19.4 8.7,19.5 8.6,19.6 C8.5,19.7 8.4,19.4 8.4,19.3 C8.4,19.2 8.3,19.2 8.2,19.2 C8.2,19.2 8.2,19.2 8.2,19.3 L8.1,19.3 C8,19.4 8.2,19.4 8.2,19.4 L8.2,19.5 L8.1,19.5 C8.1,19.6 8,19.6 8,19.6 L8,19.6 L8,19.6 C7.9,19.6 7.9,19.7 7.9,19.6 L7.9,19.4 L7.8,19.4 C7.8,19.5 7.8,19.5 7.7,19.5 L7.7,19.6 L7.9,19.6 C8,19.7 8,19.8 8,19.9 L8,19.9 C8,20 8,20.1 7.9,20 C7.8,19.9 7.9,19.8 7.9,19.7 L7.8,19.7 C7.9,19.9 7.7,20 7.9,20.2 C8,20.3 7.7,20.4 7.8,20.4 C7.8,20.4 7.9,20.5 8,20.5 L8,20.4 C8,20.4 8.1,20.3 8.1,20.4 L8.1,20.5 L8,20.5 L8,20.8 L8,20.9 C8,21 8.2,20.9 8.2,21 C8.2,21.1 8.1,21.1 8.2,21.2 C8.2,21.2 8.3,21.2 8.3,21.3 L8.3,21.4 C8.3,21.4 8.4,21.4 8.4,21.5 C8.5,21.5 8.5,21.5 8.5,21.4 C8.6,21.4 8.6,21.3 8.6,21.2 C8.6,21.2 8.6,21.1 8.5,21.2 L8.5,21 C8.5,20.9 8.4,20.9 8.4,20.8 C8.5,20.8 8.5,20.8 8.6,20.7 C8.6,20.7 8.7,20.7 8.7,20.8 C8.7,20.8 8.7,20.8 8.7,20.9 C8.8,20.9 8.8,21 8.8,21 C8.9,21 8.9,21.1 9,21.2 L9.3,21.2 L9.3,21.1 L9.4,21.2 C9.4,21.3 9.4,21.4 9.5,21.5 L9.6,21.5 L9.7,21.6 L9.8,21.6 C9.9,21.6 9.9,21.7 9.9,21.7 L9.9,21.7 C10,21.7 10.1,21.7 10.1,21.8 C10.2,21.9 10.2,22 10.3,22.2 C10.3,22.3 10.4,22.3 10.4,22.3 C10.4,22.3 10.4,22.4 10.5,22.4 C10.6,22.5 10.7,22.5 10.8,22.5 C10.8,22.5 10.9,22.4 11,22.4 L11.1,22.4 C11.2,22.6 11.2,22.8 11.4,22.8 C11.5,22.8 11.5,22.9 11.6,23 L11.8,23 C11.8,23 11.8,23.1 11.9,23.1 C12,23.2 12.1,23.2 12.1,23.3 L12.1,23.4 C12.2,23.4 12.3,23.3 12.3,23.4 C12.4,23.5 12.5,23.5 12.5,23.6 L12.6,23.6 L12.6,23.5 C12.6,23.4 12.7,23.5 12.8,23.4 C12.9,23.4 12.9,23.2 12.9,23.2 C13,23.2 13.1,23.3 13.2,23.4 L13.3,23.4 C13.4,23.5 13.4,23.7 13.5,23.7 C13.7,23.7 13.7,23.8 13.9,23.9 C14,23.9 14.1,24 14.2,24 L14.3,24 C14.4,24 14.4,24 14.5,23.9 C14.6,23.8 14.8,23.8 14.9,23.7 L15,23.6 C15.2,23.5 15.5,23.7 15.7,23.6 C15.8,23.6 15.8,23.6 15.9,23.5 C16,23.4 16.1,23.2 16,23.1 C15.9,22.9 15.8,22.6 15.7,22.4 C15.6,22.3 15.5,22.2 15.4,22.1 L15.3,22.1 C15.2,22.1 15.2,22 15.2,21.9 C15.2,21.9 15.1,21.9 15.1,21.8 L15.1,21.6 L15.1,21.5 C15,21.5 14.9,21.4 14.7,21.4 C14.7,21.4 14.6,21.4 14.6,21.3 L14.6,21.2 C14.7,21.1 14.8,21.1 14.9,21.1 L14.9,21 L14.9,20.8 C14.9,20.8 14.9,20.7 14.8,20.7 C14.8,20.6 14.9,20.5 14.8,20.4 C14.7,20.3 14.6,20.2 14.6,20.1 C14.6,20.1 14.5,20.1 14.5,20 L14.5,19.5 C14.5,19.4 14.4,19.4 14.5,19.3 L14.6,19.2 C14.7,19.2 14.7,19.1 14.7,19 C14.6,18.9 14.5,19 14.5,19 C14.5,19 14.5,19 14.5,18.9 L14.5,18.7 L14.4,18.6 L14.4,18.4 C14.4,18.4 14.4,18.3 14.3,18.4 L14.3,18.2 C14.3,18.1 14.2,18 14.1,18.1 L14.1,18.1 C14.1,18.1 14,18.2 13.9,18.1 L13.9,18 C13.9,18 14,18 14,17.9 C14.1,17.8 14,17.7 14,17.7 C13.9,17.6 13.8,17.5 13.9,17.4 C13.8,17.4 13.6,17.4 13.6,17.2 C13.6,17 13.6,16.9 13.5,16.8 L13.5,16.5 C13.5,16.5 13.5,16.4 13.6,16.4 C13.8,16.4 14,16.4 14,16.3 C14.1,16.2 13.9,16 14,16 C14.2,15.9 14.4,16 14.6,15.8 C14.7,15.8 14.7,15.7 14.6,15.6 C14.6,15.5 14.5,15.4 14.5,15.4 C14.4,15.3 14.3,15.4 14.2,15.2 L14.2,15 C14.2,14.9 14.3,14.9 14.4,14.8 C14.6,14.7 14.7,14.8 14.9,14.9 L15,15 C15,15 15,15 15,15.1 C15,15.3 15.1,15.5 15,15.7 C15,15.8 14.9,15.8 14.9,15.9 L15,15.9 C15,16 15.1,16.2 15,16.3 C14.9,16.4 14.9,16.3 14.7,16.3 C14.6,16.3 14.6,16.3 14.6,16.4 L14.7,16.5 C15.1,16.6 15.2,16.6 15.6,16.7 C15.7,16.7 15.7,16.8 15.8,16.8 L16,16.8 L16.1,16.8 C16.1,16.9 16.2,16.9 16.2,16.9 C16.3,17 16.3,17.2 16.4,17.2 C16.5,17.1 16.6,17.2 16.6,17.2 C16.5,17.3 16.6,17.4 16.6,17.5 C16.7,17.6 16.8,17.6 16.9,17.7 C17,17.8 17.1,17.8 17.1,17.7 C17.1,17.6 17,17.5 17.1,17.4 C17.2,17.6 17.1,17.8 17.2,18 L17.2,18 C17.3,18.1 17.3,18.2 17.4,18.2 C17.5,18.2 17.5,18.1 17.5,18 L17.5,17.9 C17.5,17.8 17.5,17.8 17.6,17.7 C17.6,17.6 17.7,17.5 17.7,17.4 L17.7,17.3 C17.7,17.2 17.9,17.1 18,17.1 C18,17.1 18,17.1 18,17 C18.1,17 18,16.8 18.1,16.8 C18.1,16.7 18.2,16.7 18.2,16.6 C18.2,16.6 18.3,16.5 18.2,16.5 C18.7,16.6 18.7,16.5 18.7,16.5" id="Shape"></path>
                    <path d="M14.5,16.3 L14.4,16.3 L14.4,16.4 L14.5,16.5 L14.5,16.8 C14.5,16.9 14.6,17 14.7,16.9 C14.8,16.8 14.9,16.6 14.8,16.5 C14.6,16.5 14.7,16.4 14.5,16.3" id="Shape"></path>
                    <path d="M14.3,17.2 L14.3,17.2 C14.4,17.4 14.5,17.3 14.6,17.3 L14.6,17.2 C14.5,17.1 14.5,17.1 14.3,17.2 C14.4,17.1 14.3,17.1 14.3,17.1 L14.3,17.2" id="Shape"></path>
                    <path d="M14.6,17.6 C14.6,17.4 14.5,17.4 14.4,17.5 C14.3,17.6 14.4,17.8 14.5,17.9 C14.5,17.9 14.5,18 14.6,18 C14.6,18.1 14.7,18 14.8,18 C14.8,17.9 14.8,17.9 14.9,17.9 C14.8,17.8 14.7,17.6 14.6,17.6" id="Shape"></path>
                    <path d="M14.3,16.8 C14.3,16.7 14.2,16.7 14.3,16.8 C14.2,16.8 14.2,16.8 14.2,16.9 C14.2,17 14.2,17.1 14.3,17.1 C14.3,17.1 14.4,17.1 14.4,17 C14.3,16.9 14.3,16.9 14.3,16.8" id="Shape"></path>
                    <path d="M14.7,17.4 L14.8,17.3 L14.9,17.3 C14.9,17.3 14.9,17.3 14.9,17.2 C14.8,17.2 14.8,17.3 14.7,17.3 C14.6,17.3 14.7,17.4 14.7,17.4" id="Shape"></path>
                    <path d="M14.6,18.3 C14.6,18.4 14.6,18.4 14.7,18.4 L14.8,18.4 L14.8,18.3 L14.6,18.3 C14.6,18.2 14.6,18.3 14.6,18.3" id="Shape"></path>
                    <path d="M14.8,19 C14.8,18.9 14.9,18.9 14.8,18.8 L14.7,18.8 C14.7,18.9 14.8,19 14.8,19" id="Shape"></path>
                    <path d="M8.5,21.5 L8.5,21.6 L8.7,21.6 C8.6,21.6 8.6,21.4 8.5,21.5" id="Shape"></path>
                    <path d="M9.1,22.2 C9,22.3 9.2,22.4 9.3,22.4 L9.3,22.2 C9.3,22.2 9.2,22.1 9.1,22.2" id="Shape"></path>
                    <path d="M9.4,22.6 C9.4,22.8 9.5,22.9 9.6,22.9 C9.7,22.7 9.6,22.6 9.4,22.6" id="Shape"></path>
                    <path d="M19.5,17.4 C19.7,17.3 19.9,17.3 20.1,17.3 C20.5,17.3 20.5,16.7 20.7,16.4 C20.7,16.3 20.7,16.1 20.6,16 C20.5,15.8 20,16 19.9,15.8 C19.8,15.7 20.2,15.9 20.2,15.7 C20.2,15.6 20.2,15.6 20.1,15.5 L19.9,15.5 C19.7,15.7 19.6,16 19.5,16.3 C19.2,16.7 18.8,17 18.6,17.5 C18.6,17.6 18.6,17.6 18.7,17.7 C19,17.8 19.3,17.5 19.5,17.4" id="Shape"></path>
                    <path d="M21.3,16.4 C21.2,16.4 21.2,16.4 21.1,16.5 L21.1,16.7 L21.2,16.7 C21.2,16.6 21.2,16.6 21.1,16.6 C21.3,16.5 21.3,16.4 21.3,16.4" id="Shape"></path>
                    <path d="M20,17.9 C20.1,18.1 20.5,18 20.5,17.9 C20.5,17.8 20.2,17.7 20.1,17.7 C19.9,17.7 20.2,17.8 20,17.9" id="Shape"></path>
                    <path d="M20.5,19.2 C20.6,19.1 20.6,19 20.6,18.9 L20.3,19.2 L20.5,19.2" id="Shape"></path>
                    <path d="M22.3,16.5 L22.3,16.4 L22.1,16.4 C22,16.4 22,16.3 22,16.2 C22,16.1 21.9,16 21.9,15.9 C21.8,15.9 21.8,16.1 21.8,16.1 C22,16.3 22.1,16.6 22.3,16.5" id="Shape"></path>
                    <path d="M19.9,15.3 C19.8,15.2 19.8,15.3 19.9,15.3 C19.8,15.4 19.9,15.4 19.9,15.3 L19.9,15.3" id="Shape"></path>
                    <path d="M8.1,19.1 C8.1,19.1 8.1,19 8,19 L7.9,19 L7.9,19.1 C7.9,19.1 8,19.2 8.1,19.1" id="Shape"></path>
                    <path d="M8.8,19.1 C8.9,19.1 9,19 8.9,18.9 L8.9,18.9 C8.8,18.8 8.6,18.9 8.7,19 C8.6,19.1 8.7,19.2 8.8,19.1" id="Shape"></path>
                    <path d="M20.2,12.1 C20.2,12 20.3,12 20.3,11.9 L20.2,11.9 C20.1,11.9 20.1,12 20.2,12.1 C20.1,12 20.1,12 20.2,12.1 C20.1,12.1 20.2,12.1 20.2,12.1" id="Shape"></path>
                    <path d="M20.5,12 C20.5,12 20.6,11.9 20.5,11.9 L20.4,11.9 C20.4,11.9 20.4,12 20.5,12" id="Shape"></path>
                    <path d="M19.4,14.6 C19.4,14.7 19.6,14.9 19.7,14.8 C19.8,14.7 19.7,14.6 19.7,14.6 C19.6,14.5 19.5,14.5 19.4,14.6" id="Shape"></path>
                    <path d="M19.7,15.4 L19.7,15.3 L19.5,15.3 C19.5,15.3 19.5,15.3 19.4,15.3 C19.4,15.3 19.4,15.4 19.5,15.4 C19.5,15.3 19.6,15.4 19.7,15.4" id="Shape"></path>
                    <path d="M19.4,15.6 C19.3,15.6 19.4,15.7 19.4,15.8 C19.5,15.8 19.5,15.8 19.6,15.7 C19.6,15.6 19.7,15.5 19.6,15.5 C19.5,15.5 19.4,15.5 19.4,15.6" id="Shape"></path>
                    <path d="M19.2,15.3 C19.2,15.4 19.1,15.5 19.2,15.6 C19.2,15.7 19.3,15.6 19.3,15.6 C19.3,15.5 19.3,15.4 19.4,15.4 L19.3,15.4 C19.3,15.4 19.3,15.4 19.3,15.3 L19.2,15.3" id="Shape"></path>
                    <path d="M26.8,22.4 C26.9,22.4 26.8,22.3 26.8,22.4 L26.8,22.4 L26.8,22.4" id="Shape"></path>
                    <path d="M21,18.5 C21,18.6 21,18.5 21,18.5 L20.9,18.4 C20.9,18.3 20.8,18.5 20.7,18.4 L20.7,18.4 C20.8,18.5 20.7,18.5 20.6,18.6 C20.6,18.7 20.7,18.7 20.7,18.7 C20.7,18.8 20.6,18.8 20.7,18.9 L20.6,19 C20.6,19 20.5,19.1 20.6,19.1 C20.7,19.2 20.8,19 20.9,19 L21,19 C21.1,19 21.1,18.9 21.2,18.8 L21,18.8 C21,18.8 20.9,18.8 21,18.5 C21,18.6 21,18.5 21,18.5" id="Shape"></path>
                    <path d="M21.6,20.4 C21.6,20.5 21.7,20.5 21.6,20.4 C21.7,20.4 21.7,20.3 21.7,20.2 L21.6,20.2 L21.6,20.4" id="Shape"></path>
                    <path d="M21.7,20.2 C21.8,20.2 21.7,20.1 21.7,20.1 L21.6,20.1 C21.6,20.1 21.6,20.2 21.7,20.2" id="Shape"></path>
                    <path d="M22.3,20.5 C22.3,20.5 22.3,20.4 22.3,20.5 C22.2,20.5 22.2,20.4 22.1,20.5 L22,20.5 L22,20.6 C22.2,20.5 22.2,20.5 22.3,20.5" id="Shape"></path>
                    <path d="M23.3,20.4 L23.3,20.3 C23.2,20.3 23.1,20.4 23,20.3 L23,20.4 C23,20.4 23,20.4 22.9,20.4 C23.1,20.5 23.2,20.4 23.3,20.4" id="Shape"></path>
                    <path d="M23.7,20 C23.7,20.2 23.9,20.1 23.9,20 C24,19.9 23.9,19.9 23.7,20 L23.8,19.9 C23.8,20 23.7,20 23.7,20" id="Shape"></path>
                    <path d="M28.5,16.8 C28.5,16.9 28.6,16.9 28.7,16.9 C28.8,16.9 28.9,16.9 29,16.8 C29,16.6 28.9,16.5 28.7,16.5 C28.5,16.6 28.5,16.7 28.5,16.8" id="Shape"></path>
                    <path d="M28.5,21.9 L28.4,21.9 C28.3,22.4 27.8,23.1 28.4,23.4 C28.6,23.6 28.9,23.3 29,23.1 C29,22.8 29,22.1 28.5,21.9" id="Shape"></path>
                    <path d="M27,19.7 C26.9,19.7 26.9,19.9 27,19.9 C27,19.9 27.1,19.9 27.1,19.8 L27.1,19.7 C27.1,19.7 27.1,19.7 27,19.7" id="Shape"></path>
                    <path d="M27.4,24.8 L27.4,25 C27.4,25 27.6,24.9 27.4,24.8 L27.4,24.8" id="Shape"></path>
                    <path d="M29.7,13.1 L29.6,13.1 L29.6,13.3 C29.4,13.7 28.9,14.2 29.2,14.7 L29.2,14.7 C29.3,14.6 29.4,14.5 29.5,14.3 C29.6,14 29.8,13.7 29.9,13.3 C29.9,13.3 29.8,13.1 29.7,13.1" id="Shape"></path>
                    <path d="M28.8,14.9 C28.8,15 28.8,15 28.9,15 C29,15 29,14.9 28.9,14.9 C28.9,14.8 28.9,14.8 28.8,14.9" id="Shape"></path>
                    <path d="M23.7,11.8 C23.6,11.6 23.5,11.8 23.4,11.8 L23.3,11.7 L23.2,11.7 C23.1,11.7 23.2,11.9 23.3,11.9 C23.4,11.9 23.4,11.8 23.4,11.9 C23.5,12 23.4,12.2 23.6,12.1 C23.7,12.1 23.8,12 23.9,12 C24,12 24,11.9 24,11.8 C24.1,11.8 24.2,11.7 24.3,11.8 C24.3,11.8 24.3,11.9 24.4,11.9 C24.4,12 24.5,12 24.6,12 C24.7,12 24.8,12 24.9,11.9 C25,11.8 25,11.7 24.9,11.6 L24.7,11.6 C24.6,11.6 24.6,11.5 24.5,11.5 C24.1,11.4 23.9,11.7 23.7,11.8" id="Shape"></path>
                    <path d="M24.6,12 C24.6,12 24.5,12 24.6,12 L24.5,12 L24.6,12 Z" id="Shape"></path>
                    <path d="M22.7,12 L23,12 L23,12 C23,11.8 22.8,11.9 22.7,11.9 C22.8,11.8 22.8,11.9 22.7,12 C22.7,11.9 22.7,11.9 22.7,12 C22.6,11.9 22.7,12 22.7,12" id="Shape"></path>
                    <path d="M23.1,12.6 C23.2,12.5 23.4,12.4 23.5,12.3 C23.5,12.3 23.5,12.3 23.5,12.2 L23.5,12.2 C23.5,12.1 23.4,12.1 23.3,12 C23.3,12.1 23.2,12.1 23.2,12.1 C23.1,12.2 23,12.2 23,12.3 L23,12.5 C23.1,12.8 23.1,12.7 23.1,12.6" id="Shape"></path>
                    <path d="M21.6,11.6 L21.6,11.7 C21.7,11.8 21.7,11.7 21.6,11.6 L21.6,11.6" id="Shape"></path>
                    <path d="M18,9.4 C18.1,9.5 18.3,9.5 18.4,9.5 L18.5,9.4 C18.4,9.3 18.3,9.4 18.3,9.3 L18.2,9.3 C18.1,9.2 18,9.3 18,9.4 C17.9,9.4 18,9.4 18,9.4" id="Shape"></path>
                    <path d="M27.1,11 C27.1,11.1 27,11 26.9,11.1 L26.9,11.2 C27,11.3 27.1,11.2 27.2,11.2 L27.2,11.2 C27.2,11.2 27.3,11.1 27.3,11.2 L27.3,11.3 C27.2,11.3 27.2,11.4 27.2,11.4 L27,11.4 C27,11.4 27,11.4 26.9,11.4 L26.9,11.4 L26.9,11.6 C26.8,11.7 26.5,11.8 26.6,12 C26.7,12.1 26.9,12.1 27.1,12.1 L27.1,12.1 C27.1,11.9 27.2,11.9 27.3,11.8 C27.3,11.8 27.3,11.7 27.2,11.7 L27.2,11.6 C27.3,11.6 27.3,11.5 27.3,11.5 L27.3,11.4 C27.4,11.4 27.5,11.3 27.5,11.3 C27.5,11.2 27.4,11.1 27.4,11 C27.4,11 27.4,10.9 27.5,10.9 C27.5,10.9 27.5,10.9 27.5,10.8 C27.5,10.8 27.5,10.8 27.4,10.8 C27.4,10.8 27.3,10.8 27.4,10.9 C27.3,10.9 27.2,10.9 27.1,11 C27.1,10.8 27.2,11 27.1,11" id="Shape"></path>
                    <path d="M26.1,12 C26.1,12.1 26.2,12.1 26.3,12 L26.3,12 L26.1,12" id="Shape"></path>
                    <path d="M27.5,11.8 C27.4,11.9 27.6,11.9 27.7,11.9 L27.7,11.9 L27.7,11.9 C27.7,11.8 27.6,11.8 27.5,11.8" id="Shape"></path>
                    <path d="M27.9,11.3 C27.8,11.3 27.8,11.3 27.9,11.3 C27.8,11.3 27.8,11.4 27.9,11.3 C27.9,11.4 27.9,11.4 27.9,11.3 L27.9,11.3" id="Shape"></path>
                    <path d="M25.6,7.3 C25.7,7.4 25.8,7.4 25.8,7.5 L25.8,7.9 L25.9,8 L25.9,8.2 C25.9,8.3 26,8.5 26,8.6 C26.1,8.6 26.1,8.7 26.1,8.7 C26.1,8.8 26.1,8.8 26.2,8.9 C26.2,9 26.3,8.9 26.4,9 C26.5,9.1 26.6,9.3 26.7,9.4 C26.7,9.4 26.8,9.4 26.8,9.5 L26.8,9.6 C27,9.6 27.3,9.7 27.2,10 C27.3,9.9 27.4,9.9 27.4,9.8 C27.4,9.7 27.5,9.5 27.4,9.4 C27.4,9.3 27.3,9.3 27.2,9.2 L27.2,9 C27.2,8.9 27.1,8.9 27.1,8.9 C27.1,8.8 27,8.6 27.2,8.6 C27.2,8.6 27.2,8.6 27.2,8.5 L27,8.5 L27,8.4 C27,8.3 27,8.2 26.9,8.1 C26.8,8 26.7,8 26.6,8 C26.5,7.9 26.5,7.9 26.4,7.9 L26.2,7.9 C26,7.7 25.9,7.5 25.8,7.3 C25.7,7.2 25.6,7.2 25.5,7.3 C25.6,7.2 25.6,7.2 25.6,7.3 C25.6,7.2 25.6,7.2 25.6,7.3 C25.6,7.2 25.6,7.3 25.6,7.3" id="Shape"></path>
                    <path d="M24.7,7.6 C24.6,7.7 24.7,7.8 24.7,7.8 L25.1,7.8 C25.2,7.8 25.2,7.7 25.2,7.7 C25.3,7.6 25.4,7.7 25.6,7.6 C25.6,7.7 25.6,7.7 25.7,7.7 C25.7,7.6 25.7,7.5 25.6,7.5 C25.5,7.4 25.5,7.3 25.4,7.2 L25.3,7.2 C25.3,7.4 25.2,7.3 25,7.4 C25,7.4 25,7.4 25,7.5 L25,7.5 C25,7.5 25,7.5 25,7.4 L24.8,7.4 C24.8,7.5 24.7,7.6 24.7,7.6" id="Shape"></path>
                    <path d="M22.4,3.7 C22.3,3.5 22.1,3.3 22.2,3 C22.5,3.1 22.8,3.1 23.1,3 C23.3,2.9 23.6,3 23.8,2.9 L23.8,2.7 C23.5,2.8 23.3,2.5 23.1,2.6 C22.8,2.8 22.5,2.8 22.2,2.9 C22,3 21.3,2.9 21.3,3.3 C21.6,3.3 22,3.3 22.2,3.6 C22.2,3.7 22.3,3.7 22.4,3.7" id="Shape"></path>
                    <path d="M23.4,5.2 C23.5,5.4 23.7,5.4 23.8,5.4 C23.8,5.3 23.8,5.3 23.7,5.2 L23.4,5.2" id="Shape"></path>
                    <path d="M23.1,5.7 C23,5.7 23.1,5.8 23.2,5.9 C23.2,5.8 23.3,5.6 23.1,5.7" id="Shape"></path>
                    <path d="M22.9,5.4 L22.9,5.4 L22.9,5.4 C23,5.3 22.9,5.2 22.8,5.2 L22.8,5.3 C22.8,5.3 22.8,5.3 22.9,5.4" id="Shape"></path>
                    <path d="M23.8,6.5 C23.8,6.5 23.8,6.6 23.8,6.5 L23.8,6.5 L23.8,6.5 C23.9,6.4 23.9,6.3 23.9,6.3 C23.9,6.3 23.9,6.3 23.8,6.3 C23.7,6.4 23.8,6.5 23.8,6.5" id="Shape"></path>
                    <path d="M24.1,6.5 L24.1,6.6 C24.2,6.7 24.2,6.6 24.1,6.5 C24.2,6.6 24.2,6.6 24.1,6.5 C24.2,6.5 24.1,6.6 24.1,6.5" id="Shape"></path>
                    <path d="M24,6.8 L24,6.8 C24.1,6.7 24.1,6.7 24,6.8 L24.1,6.7 L24.1,6.7 C24.1,6.6 24,6.6 23.9,6.7 C23.8,6.7 24,6.7 24,6.8" id="Shape"></path>
                    <path d="M24.1,6.8 L24.1,6.8 C24.1,6.9 24.2,7 24.3,6.9 C24.3,6.9 24.4,6.8 24.3,6.8 L24.1,6.8 L24.1,6.8 Z" id="Shape"></path>
                    <path d="M24.6,7 L24.6,7 C24.6,6.9 24.5,6.8 24.5,6.8 C24.5,6.8 24.4,6.9 24.5,6.9 C24.5,7 24.5,7 24.6,7" id="Shape"></path>
                    <path d="M24.7,7.3 L24.8,7.3 C24.8,7.3 24.8,7.3 24.8,7.2 L24.8,7.2 L24.8,7.1 L24.7,7.1 L24.7,7.1 L24.6,7.1 L24.6,7.2 C24.6,7.2 24.7,7.3 24.7,7.3" id="Shape"></path>
                    <path d="M24.5,7.5 L24.5,7.5 C24.6,7.4 24.6,7.4 24.5,7.3 C24.5,7.3 24.5,7.3 24.4,7.3 C24.4,7.3 24.4,7.4 24.3,7.4 C24.4,7.5 24.4,7.5 24.5,7.5" id="Shape"></path>
                    <path d="M24.2,2.5 L24.2,2.5 L24.2,2.5 C24.1,2.4 24.1,2.4 24,2.4 C24.1,2.5 24.1,2.6 24.2,2.5" id="Shape"></path>
                    <path d="M27.6,5 C27.7,5.1 27.8,5 27.8,5.1 C27.9,5.2 27.9,5.3 28,5.3 C28.1,5.3 28.1,5.3 28.1,5.2 C28.1,5 28.1,4.8 27.9,4.8 L27.4,4.8 C27.3,4.8 27.3,4.9 27.3,5 C27.4,4.9 27.5,4.9 27.6,5" id="Shape"></path>
                    <path d="M31.7,10.2 C31.6,10.1 31.6,9.9 31.5,9.8 C31.4,9.7 31.3,9.7 31.2,9.6 L31.2,9.4 L31.1,9.3 C31,9.1 31,9 30.8,9 C30.8,8.8 30.7,8.8 30.5,8.7 L30.5,8.6 C30.5,8.5 30.4,8.5 30.4,8.5 L30.3,8.5 C30.2,8.4 30.1,8.3 30.1,8.2 C30.1,8.1 29.9,8 29.8,7.9 L29.7,7.8 C29.6,7.8 29.5,7.8 29.5,7.7 C29.5,7.5 29.3,7.4 29.2,7.3 C29,7.2 29.2,6.9 29.1,6.6 C29.1,6.5 29,6.5 28.9,6.5 C28.9,6.5 28.8,6.5 28.8,6.4 C28.7,6.3 28.8,6.1 28.7,6 C28.6,5.8 28.4,5.7 28.3,5.5 C28.2,5.4 28.1,5.4 28,5.4 C28,5.4 28,5.4 27.9,5.4 L27.8,5.3 C27.7,5.2 27.6,5.1 27.5,5.1 C27.3,5 27.1,5.1 26.9,5 C26.7,5 26.5,5 26.4,5.2 C26.2,5.3 26.1,5.4 25.9,5.4 C25.8,5.4 25.9,5.5 25.9,5.6 C25.9,5.7 25.7,5.8 25.8,5.8 L25.8,5.8 L26,5.8 C26.1,5.8 26.1,5.9 26.1,5.9 C26.2,6 26.3,6.1 26.3,6.2 C26.3,6.2 26.2,6.3 26.3,6.4 C26.4,6.5 26.4,6.6 26.4,6.7 C26.4,6.8 26.5,6.7 26.5,6.7 C26.7,6.8 26.7,7 26.6,7.1 L26.6,7.4 C26.7,7.6 26.7,7.8 26.8,7.9 L26.9,7.8 C27,7.8 27,7.7 27.1,7.7 C27.3,7.5 27.5,7.9 27.6,8 C27.7,8.2 27.6,8.4 27.7,8.6 C27.8,8.8 27.9,8.9 28,9 C28,9 28,9.1 28.1,9.2 L28.2,9.3 C28.2,9.3 28.2,9.2 28.3,9.2 L28.4,9.2 C28.6,9.4 28.6,9.8 28.9,9.8 C28.9,9.8 28.9,9.9 29,9.9 C29.1,9.9 29.1,9.8 29.2,9.9 C29.2,10 29.3,10.1 29.3,10.1 L29.6,10.1 C29.7,10.1 29.7,10.2 29.8,10.3 L29.9,10.4 C30.1,10.6 30.2,10.9 30.4,11.1 C30.5,11.2 30.6,11.3 30.7,11.2 L30.7,11.1 C30.8,11.1 30.9,11 30.9,10.9 C31,10.8 31.1,10.7 31.2,10.6 L31.2,10.6 C31.3,10.5 31.4,10.5 31.5,10.4 C31.8,10.4 31.7,10.2 31.7,10.2" id="Shape"></path>
                    <path d="M27.7,9.7 L27.7,9.7 L27.8,9.7 L27.7,9.7 Z" id="Shape"></path>
                    <path d="M27.5,10.3 C27.5,10.4 27.6,10.4 27.7,10.4 C27.8,10.5 27.8,10.6 27.9,10.6 C28,10.7 28,10.5 28,10.4 L28.1,10.4 C28.2,10.3 28.1,10.1 28,10 C27.9,9.9 27.9,9.8 27.7,9.8 C27.6,9.8 27.6,9.8 27.5,9.9 C27.4,10 27.5,10.1 27.5,10.2 C27.5,10.2 27.5,10.2 27.5,10.3" id="Shape"></path>
                    <path d="M28.2,10.7 C28.1,10.9 28.2,11.1 28.2,11.3 C28.2,11.4 28,11.4 28,11.5 C28,11.5 27.9,11.6 28,11.7 C28,11.8 28.2,11.8 28.3,11.9 C28.5,12 28.8,12.2 28.9,12.5 C29,12.6 29,12.7 29,12.8 C29.1,12.9 29.2,12.9 29.2,13 C29.2,13.1 29.3,13.1 29.3,13 C29.4,12.9 29.4,12.7 29.3,12.6 C29.2,12.5 29.2,12.5 29.2,12.4 C29.2,12.1 29.1,11.9 29,11.6 C28.9,11.5 28.8,11.4 28.7,11.3 L28.7,11.2 C28.7,11.1 28.8,11.1 28.8,11 C28.8,10.9 28.7,10.8 28.6,10.7 C28.6,10.7 28.6,10.7 28.5,10.7 L28.6,10.7 C28.4,10.6 28.3,10.6 28.2,10.7" id="Shape"></path>
                    <path d="M29.7,12.1 L29.7,11.9 C29.7,11.7 29.5,11.7 29.4,11.7 L29.3,11.7 L29.3,11.9 C29.5,12.2 29.5,12.5 29.6,12.9 C29.6,13 29.9,12.9 29.9,12.8 L29.9,12.6 C29.9,12.5 29.8,12.5 29.8,12.4 C29.8,12.3 29.7,12.2 29.7,12.1" id="Shape"></path>
                    <path d="M29.3,11.2 C29.2,11.3 29.3,11.4 29.3,11.5 L29.3,11.5 C29.4,11.5 29.4,11.5 29.4,11.4 C29.3,11.4 29.4,11.3 29.3,11.2 L29.3,11.2" id="Shape"></path>
                    <path d="M29.3,11 C29.3,10.9 29.3,10.9 29.2,10.9 C29.2,11 29.1,11 29,11 C28.9,11.1 29,11.1 29.1,11.2 L29.1,11.2 C29.3,11.2 29.4,11.1 29.3,11 L29.3,11" id="Shape"></path>
                    <path d="M28.8,10.5 C28.9,10.6 28.8,10.7 28.9,10.7 C29,10.7 29.1,10.8 29.2,10.7 C29.3,10.7 29.2,10.6 29.1,10.6 L29.1,10.5 C29.1,10.5 29.1,10.5 29,10.5 C28.9,10.4 29.1,10.4 29,10.3 L29,10.2 L28.9,10.2 L28.9,10.3 C28.8,10.4 28.7,10.5 28.8,10.5" id="Shape"></path>
                    <path d="M28.7,9.9 C28.6,9.9 28.5,9.9 28.5,9.8 L28.4,9.8 L28.4,9.8 C28.4,9.8 28.3,9.9 28.4,9.9 C28.5,9.9 28.5,10 28.5,10 C28.5,10.1 28.6,10 28.6,10.1 C28.6,10.2 28.7,10.2 28.7,10.1 L28.7,10 C28.7,10 28.7,9.9 28.7,10 C28.7,10 28.8,9.9 28.7,9.9" id="Shape"></path>
                    <path d="M21.6,14.5 L21.6,14.5 C21.7,14.4 21.7,14.4 21.6,14.5 C21.7,14.4 21.6,14.3 21.6,14.3 C21.6,14.3 21.5,14.3 21.5,14.4 L21.5,14.4 C21.6,14.4 21.6,14.4 21.6,14.5" id="Shape"></path>
                    <path d="M29.4,13.2 C29.3,13.2 29.1,13.2 29,13.3 C28.8,13.4 28.7,13.7 28.6,13.9 C28.5,14 28.4,14.1 28.2,14.1 C28.2,14.1 28.1,14.1 28.1,14 L28.1,13.8 L28.2,13.7 C28.3,13.6 28.2,13.5 28.2,13.4 C28.1,13.2 27.9,13 27.7,13.1 C27.5,13.1 27.4,13.4 27.2,13.6 L27.2,13.6 C27.1,13.5 27,13.4 27,13.3 C27,13.3 27,13.3 27,13.2 C27.1,13.2 27.2,13.4 27.2,13.3 C27.3,13.2 27.2,13.1 27.1,13.1 C27,13.1 27,13 26.9,13 C26.8,13 26.8,12.9 26.7,12.8 C26.7,12.7 26.7,12.5 26.6,12.5 C26.5,12.5 26.4,12.5 26.3,12.4 L26.1,12.4 L26.1,12.3 C26.2,12.3 26.4,12.3 26.3,12.1 C26.3,12 26.2,12 26.1,12 L26,12 L26,12.1 L26,12.3 C25.9,12.4 25.8,12.4 25.7,12.4 L25.6,12.4 C25.5,12.4 25.4,12.3 25.3,12.3 C25.2,12.4 25.2,12.5 25.1,12.5 C25,12.5 25,12.5 24.9,12.6 C24.8,12.6 24.8,12.8 24.9,12.9 L24.9,13 C24.8,13 24.8,12.9 24.8,12.9 C24.8,12.8 24.7,12.7 24.7,12.6 C24.7,12.5 24.8,12.4 24.9,12.3 L24.9,12.1 C24.8,12 24.8,12 24.7,12 C24.5,12.1 24.4,12.4 24.2,12.3 C24.1,12.3 24,12.1 23.9,12.1 C23.8,12.1 23.8,12 23.7,12.1 C23.6,12.2 23.4,12.3 23.2,12.4 C23.1,12.5 22.9,12.6 22.9,12.8 C22.8,13 22.5,13.1 22.3,12.9 C22.2,12.8 22.1,12.7 22,12.7 C21.9,12.7 21.8,12.9 21.7,12.9 C21.6,12.9 21.6,12.9 21.5,12.8 L21.5,12.7 C21.7,12.6 21.9,12.5 22.1,12.4 C22.2,12.4 22.2,12.3 22.2,12.2 C22.2,12.2 22.2,12.2 22.2,12.1 L22.2,12 C21.9,12 21.7,12.2 21.6,12.4 C21.6,12.4 21.6,12.5 21.5,12.5 C21.3,12.5 21.2,12.6 21,12.5 L20.9,12.3 C20.8,12.4 20.8,12.5 20.7,12.5 L20.6,12.6 C20.5,12.7 20.7,12.9 20.6,13 C20.6,13.1 20.4,13.1 20.3,13.1 L20.3,13.3 C20.3,13.4 20.4,13.3 20.4,13.4 C20.5,13.5 20.5,13.7 20.6,13.7 C20.8,13.8 20.9,13.7 21.1,13.8 C21.2,13.8 21.3,13.9 21.4,14 C21.4,14.1 21.5,14.1 21.5,14.2 C21.5,14.2 21.5,14.3 21.6,14.3 L21.8,14.3 C21.9,14.3 21.8,14.4 21.9,14.5 C21.9,14.6 21.9,14.7 22,14.9 C22,14.9 22,15.1 21.9,15.1 C21.9,15.1 21.8,15.1 21.8,15.2 L21.8,15.5 L21.9,15.5 C22,15.6 22,15.7 22.1,15.8 L22.2,15.9 C22.1,15.9 22.1,16 22.1,16 C22.1,16 22.2,16.1 22.3,16 C22.4,16 22.4,15.9 22.5,15.9 C22.5,15.9 22.6,15.9 22.6,15.8 C22.6,15.8 22.7,15.9 22.7,16 C22.6,16.1 22.4,16 22.3,16.1 C22.2,16.1 22.2,16.1 22.1,16.2 C22.1,16.2 22.1,16.3 22.2,16.3 C22.4,16.4 22.3,16.7 22.1,16.9 L22.1,17.1 L22,17.1 C21.8,17.1 21.5,17 21.3,17.1 C21.2,17.1 21.2,17.2 21.2,17.3 L21.2,17.3 C21.1,17.3 21.1,17.4 21.1,17.4 L21.1,17.6 C20.9,17.8 20.9,18.1 20.8,18.3 C20.8,18.4 20.9,18.4 20.9,18.4 C21,18.4 21,18.3 21.1,18.3 C21.2,18.3 21.2,18.5 21.2,18.5 C21.2,18.6 21.4,18.6 21.4,18.5 C21.4,18.4 21.4,18.3 21.5,18.2 C21.5,18.1 21.4,18 21.4,17.9 C21.4,17.8 21.4,17.7 21.5,17.7 C21.5,17.7 21.6,17.7 21.6,17.8 L21.6,18 L21.6,18.2 C21.6,18.2 21.7,18.3 21.6,18.4 C21.6,18.4 21.6,18.5 21.5,18.5 L21.5,18.7 C21.4,18.8 21.4,18.8 21.4,18.9 C21.2,18.9 21,18.8 21.1,18.6 C21,18.6 21,18.6 20.9,18.7 L20.9,19 C20.8,19.1 20.8,19.2 20.7,19.3 C20.7,19.3 20.7,19.3 20.7,19.4 C20.6,19.5 20.5,19.6 20.4,19.6 L20.4,19.6 C20.3,19.7 20.2,19.6 20.2,19.7 C20.2,19.8 20.3,19.9 20.3,20 C20.3,20.1 20.3,20.1 20.2,20.2 L19.8,20.2 L19.8,20.2 C19.8,20.3 19.8,20.4 19.7,20.5 C19.6,20.6 19.7,20.7 19.8,20.7 C19.9,20.8 19.9,20.9 20,20.9 C20.1,20.9 20.1,21 20.2,21 C20.3,21 20.4,20.9 20.4,20.8 C20.4,20.7 20.5,20.8 20.6,20.8 L20.7,20.8 C20.8,20.7 20.7,20.6 20.7,20.6 C20.8,20.5 21,20.3 21.1,20.2 C21.2,20.2 21.2,20.1 21.3,20.1 C21.4,20.1 21.4,20.2 21.5,20.2 C21.6,20.2 21.6,20.3 21.7,20.3 L21.8,20.3 C21.9,20.3 22,20.5 22.1,20.5 L22.1,20.5 C22.1,20.4 22.1,20.3 22,20.2 C21.9,20.1 21.8,20 21.7,20 L21.7,19.9 L21.7,19.9 C21.8,20 21.8,20 21.9,20 C22,20.1 22,20.2 22.1,20.3 C22.2,20.3 22.2,20.4 22.3,20.4 C22.4,20.4 22.5,20.4 22.6,20.3 C22.6,20.2 22.6,20.2 22.5,20.2 C22.4,20.1 22.5,20.1 22.6,20 C22.7,19.9 22.6,19.8 22.6,19.7 L22.6,19.6 L22.6,19.6 C22.7,19.5 22.6,19.4 22.6,19.2 L22.6,19.2 C22.6,19.3 22.7,19.3 22.8,19.3 C22.9,19.3 23,19.2 23,19.1 C23.1,19 23.3,19.1 23.3,19.2 C23.3,19.3 23.3,19.4 23.2,19.4 C23,19.4 22.8,19.5 22.7,19.6 C22.7,19.6 22.7,19.6 22.6,19.7 C22.5,19.8 22.5,19.8 22.5,19.9 L22.4,20 C22.5,20 22.5,20.1 22.5,20.1 C22.6,20.1 22.7,20.1 22.8,20 L22.8,19.8 C22.9,19.8 22.9,19.7 23,19.7 C23.2,19.7 23.3,19.9 23.2,20 L23.1,20 C23,20.1 22.9,20.3 22.8,20.3 C22.6,20.4 22.3,20.4 22.1,20.5 C22,20.6 22,20.7 21.9,20.7 C21.8,20.7 21.7,20.8 21.6,20.7 L21.6,20.7 C21.6,20.8 21.4,20.7 21.3,20.7 C21.3,20.7 21.3,20.6 21.2,20.5 L21.1,20.5 L21.1,20.4 L20.3,20.4 C20.2,20.4 20.2,20.5 20.2,20.5 L20.1,20.6 C20,20.7 19.9,20.7 19.8,20.7 C19.7,20.7 19.6,20.7 19.5,20.8 C19.3,20.8 19.2,21 19.1,21.1 C19,21.2 18.9,21.2 18.8,21.2 L18.8,21.3 C18.6,21.3 18.5,21.6 18.4,21.8 L18.4,22 C18.3,22.1 18.3,22.3 18.1,22.4 L18.1,22.5 C18.2,22.7 18.4,22.8 18.6,23 C18.6,23.1 18.7,23.1 18.7,23.1 C18.8,23.2 18.8,23.3 18.9,23.5 C19,23.7 19.2,23.7 19.4,23.7 C19.5,23.7 19.6,23.8 19.6,23.8 C19.8,23.8 20.1,23.9 20.3,23.8 C20.6,23.9 21,23.8 21.3,23.9 C21.4,23.9 21.4,24 21.4,24.1 C21.5,24.2 21.6,24.4 21.7,24.5 C21.8,24.6 22,24.6 22.1,24.6 C22.1,24.6 22.1,24.7 22.2,24.8 C22.2,24.9 22.2,24.9 22.3,25 C22.4,25.1 22.4,25.1 22.4,25.2 C22.4,25.3 22.3,25.4 22.3,25.6 L22.3,25.8 C22.5,26 22.7,26.2 22.9,26.3 C22.9,26.3 23,26.3 22.9,26.4 C23,26.4 23,26.5 23.1,26.6 C23.1,26.7 23.1,26.7 23.2,26.8 C23.3,26.9 23.4,27 23.5,27.1 C23.6,27.2 23.8,27.2 23.9,27.2 C23.9,27.2 24,27.2 24,27.3 C24.1,27.3 24.3,27.4 24.4,27.3 C24.5,27.2 24.5,27.1 24.6,27.1 C24.7,27 24.9,27 25,27 C25,27 25.1,27 25.1,26.9 C25.1,26.8 25.2,26.8 25.2,26.7 C25.3,26.7 25.4,26.6 25.5,26.6 C25.7,26.5 25.8,26.3 26,26.2 C26.2,26.1 26.4,26.1 26.5,26 C26.6,25.8 26.5,25.6 26.5,25.4 C26.5,25.3 26.6,25.2 26.6,25.1 L26.6,24.6 C26.6,24.5 26.5,24.4 26.5,24.3 C26.5,24.2 26.6,24.2 26.7,24.2 C26.8,24.1 26.8,23.9 26.9,23.8 C26.9,23.8 27,23.8 27,23.7 C27.1,23.7 27,23.6 27,23.5 C26.9,23.5 26.9,23.4 26.9,23.4 C26.8,23.2 26.6,23 26.4,22.9 C26.3,22.9 26.3,22.8 26.3,22.8 L26.3,22.7 C26.2,22.7 26.3,22.6 26.2,22.6 L26.3,22.6 L26.3,22.6 L26.3,22.6 C26.4,22.5 26.4,22.3 26.5,22.2 C26.5,22.2 26.6,22.2 26.6,22.1 L26.6,21.8 C26.5,21.7 26.6,21.5 26.6,21.4 C26.6,21.1 26.6,20.9 26.5,20.6 C26.5,20.5 26.4,20.5 26.3,20.5 C26.3,20.5 26.3,20.6 26.2,20.6 C26.2,20.6 26.2,20.7 26.1,20.8 C26.1,20.9 25.9,20.9 25.9,21 C25.9,21.1 25.9,21.1 25.8,21.2 L25.7,21.3 C26.1,21 26,21 26,21.1 L25.7,21.1 C25.1,20.9 24.6,20.7 24.1,20.6 L24.1,20.6 L24.4,20.6 C24.5,20.6 24.4,20.5 24.4,20.5 C24.5,20.5 24.6,20.6 24.7,20.7 C24.9,20.8 25.2,20.8 25.4,20.9 C25.6,20.9 25.7,21.1 25.9,21.1 C26.1,21.1 26.2,21 26.3,21 C26.3,21 26.3,21 26.3,20.9 C26.4,20.8 26.5,20.7 26.5,20.6 L26.5,20.3 L26.6,20.2 L26.6,19.8 C26.7,19.8 26.7,19.7 26.7,19.7 C26.7,19.7 26.7,19.7 26.7,19.6 L26.7,19.4 C26.7,19.2 26.7,19 26.6,18.9 C26.6,18.8 26.5,18.8 26.4,18.8 C26.4,18.8 26.4,18.9 26.3,18.9 C26.2,18.9 26.1,18.9 26.1,19 C26,19 26,19.1 26,19.1 C25.9,19.2 25.8,19.3 25.6,19.3 C25.5,19.3 25.4,19.3 25.4,19.2 C25.3,19 25.6,19 25.8,19 L25.9,18.9 C25.9,18.8 26,18.7 26.1,18.7 L26.3,18.7 C26.4,18.7 26.4,18.6 26.5,18.6 C26.5,18.6 26.5,18.5 26.6,18.4 C26.6,18.3 26.7,18.3 26.8,18.2 C26.9,18 26.9,17.8 27,17.6 C27.1,17.5 27,17.7 27.1,17.8 C27.2,17.9 27.3,17.9 27.4,17.8 C27.5,17.7 27.4,17.6 27.5,17.6 L27.6,17.6 C27.7,17.6 27.7,17.7 27.8,17.7 C27.8,17.7 27.9,17.6 28,17.6 L28.3,17.6 C28.5,17.5 28.9,17.6 28.9,17.4 C28.9,17.1 28.6,16.8 28.3,16.7 C28.1,16.6 28.2,16.3 28,16.1 C27.9,16.1 28,16 27.9,15.9 C27.9,15.9 27.9,15.9 27.8,15.8 L27.7,15.7 L27.7,15.2 C27.7,15.1 27.8,15.1 27.9,15.1 C28,15 28.1,15 28.1,14.9 L28.1,14.5 L28.2,14.4 C28.4,14.4 28.7,14.5 28.9,14.3 C29,14.3 29,14.2 29,14.1 C29.2,13.9 29.4,13.7 29.4,13.3 C29.3,13.4 29.4,13.4 29.4,13.2 C29.5,13.3 29.5,13.2 29.4,13.2 M24.9,18.6 C24.9,18.6 24.9,18.7 24.9,18.6 C24.8,18.7 24.8,18.7 24.7,18.6 C24.7,18.5 24.6,18.5 24.6,18.4 C24.5,18.4 24.5,18.4 24.5,18.5 L24.3,18.5 C24.3,18.4 24.2,18.4 24.2,18.3 C24.1,18.2 24.2,18.1 24.3,18.1 C24.4,18.1 24.4,18.1 24.4,18.2 L24.4,18.2 C24.4,18.2 24.4,18.2 24.4,18.3 C24.5,18.4 24.5,18.3 24.6,18.3 L24.9,18.3 L24.9,18.3 C24.9,18.4 25,18.5 24.9,18.6 L24.9,18.6" id="Shape"></path>
                    <path d="M15.6,36 C16.9,34.1 20.8,32.1 24.6,32.1 C28.4,32.1 32.6,34.3 34.2,33.1 C34.2,33.1 32.5,34.5 29.1,34.5 C25.7,34.5 24.4,32.8 22.1,32.8 C19.7,32.8 17.3,34.7 16.2,36.3 L15.6,36 Z" id="Shape"></path>
                    <path d="M27.7,31.8 C27.7,31.8 28.8,31.1 29.4,29.9 C30,28.7 31.5,26.7 33.1,25.5 C33.1,25.5 31.4,31 29.6,31.2 C29.6,31.2 29.3,31.4 29.8,31.3 C30.3,31.2 32.6,30.4 33.4,30.2 C34.2,30.1 36.2,29.6 36.7,29.1 C37.2,28.7 37.5,28.7 37.5,28.7 C37.5,28.7 35.3,32.4 31.3,32.4 C31.3,32.4 29.3,32.3 27.7,31.8" id="Shape"></path>
                    <path d="M32.4,29.9 C32.4,29.9 32.8,29.3 32.9,28.2 C33,27.1 33.7,24.6 35.6,21.9 C35.6,21.9 35.9,26.2 33.7,28.9 C33.7,28.9 33.6,29.3 33.8,29 C34.1,28.7 35.4,27.1 38.4,25.1 C38.4,25.1 39.9,23.8 40,23.4 C40,23.3 38.8,29.5 32.4,29.9" id="Shape"></path>
                    <path d="M36.1,25.8 C36.1,25.8 36.3,25.1 36.3,24.5 C36.3,23.9 36,21.9 36,21 C36,20.1 36.1,18.4 36.8,17.3 C36.8,17.3 36.8,18.3 37,18.7 C37.2,19.1 37.5,20.9 37.5,21.2 C37.5,21.4 37.4,22.9 37.1,23.7 C37.1,23.7 37.4,23.5 37.7,22.9 C38,22.3 38.8,21.2 39.9,20.1 C41,19 41.3,18 41.3,18 C41.3,18 41.6,20 40.1,22.1 C38.6,24.2 38,23.9 37.2,24.7 C37.2,24.7 36.2,25.8 36.1,25.8" id="Shape"></path>
                    <path d="M38.4,20.9 C38.4,20.9 38.4,19.7 38.1,19.3 C37.9,18.9 36.5,16.5 36.8,13.4 C36.8,13.4 37,13.2 37.4,14.4 C37.8,15.6 38.4,16 38.6,17.2 C38.8,18.4 38.8,18.9 38.8,18.9 C38.8,18.9 38.9,19.1 38.9,18.9 C38.9,18.8 39,17.1 39.7,15.7 C40.4,14.2 41.3,12.8 41.2,11.8 C41.2,11.8 41.6,11.8 41.5,13.4 C41.6,15 41.2,17.8 38.4,20.9" id="Shape"></path>
                    <path d="M39.2,16.1 C39.2,16.1 38.7,15 38.4,14.6 C38.1,14.2 35.7,10.9 35.5,9.3 C35.5,9.3 35.7,9.2 35.9,9.6 C36.1,10 37.2,11.1 37.4,11.3 C37.6,11.5 38.8,12.7 38.9,14.1 C38.9,14.1 39,14.2 38.8,12 C38.6,9.8 39.5,8.3 38.7,6.7 C38.7,6.7 39.8,6.9 40.4,11.5 C40.4,11.5 40.4,13.1 39.5,15.1 C39.6,15 39.3,16.1 39.2,16.1" id="Shape"></path>
                    <path d="M38.3,11 C38.3,11 37.4,10.1 36.7,9.7 C36,9.3 33.8,7.1 33.4,5.4 C33.4,5.4 33.5,5.2 34.2,6.1 C34.7,6.8 35.3,6.5 36.9,8.5 C36.9,8.5 37.1,9 37.2,8.9 C37.3,8.9 37.1,8.4 37.1,8.4 C37.1,8.4 37,7.2 37,6.8 C37,6.4 36.3,4 36.1,3.7 C36.1,3.7 38.3,4.9 38.6,8.4 C38.5,8.4 38.4,10.9 38.3,11" id="Shape"></path>
                    <path d="M36.5,7.3 C36.5,7.3 36.6,4.3 32.7,2.7 C32.7,2.7 34.1,5.5 35.1,6.2 C36.1,6.9 36.5,7.3 36.5,7.3" id="Shape"></path>
                    <path d="M26.3,36 C25,34.1 21.1,32.1 17.3,32.1 C13.5,32.1 9.3,34.3 7.7,33.1 C7.7,33.1 9.4,34.5 12.8,34.5 C16.2,34.5 17.5,32.8 19.8,32.8 C22.1,32.8 24.6,34.7 25.7,36.3 L26.3,36 Z" id="Shape"></path>
                    <path d="M14.2,31.8 C14.2,31.8 13.1,31.1 12.5,29.9 C11.9,28.7 10.4,26.7 8.8,25.5 C8.8,25.5 10.5,31 12.3,31.2 C12.3,31.2 12.6,31.4 12.1,31.3 C11.6,31.2 9.3,30.4 8.5,30.2 C7.7,30.1 5.7,29.6 5.2,29.1 C4.8,28.7 4.4,28.7 4.4,28.7 C4.4,28.7 6.6,32.4 10.6,32.4 C10.6,32.4 12.6,32.3 14.2,31.8" id="Shape"></path>
                    <path d="M9.5,29.9 C9.5,29.9 9.1,29.3 9,28.2 C8.9,27.1 8.2,24.6 6.3,21.9 C6.3,21.9 6,26.2 8.2,28.9 C8.2,28.9 8.3,29.3 8.1,29 C7.8,28.7 6.5,27.1 3.5,25.1 C3.5,25.1 2,23.8 1.9,23.4 C1.9,23.3 3.1,29.5 9.5,29.9" id="Shape"></path>
                    <path d="M5.8,25.8 C5.8,25.8 5.6,25.1 5.6,24.5 C5.6,23.9 5.9,21.9 5.9,21 C5.9,20.1 5.8,18.4 5.1,17.3 C5.1,17.3 5.1,18.3 4.9,18.7 C4.7,19.1 4.4,20.9 4.4,21.2 C4.4,21.4 4.5,22.9 4.8,23.7 C4.8,23.7 4.5,23.5 4.2,22.9 C3.9,22.3 3.1,21.2 2,20.1 C0.9,19 0.6,18 0.6,18 C0.6,18 0.3,20 1.8,22.1 C3.3,24.2 3.9,23.9 4.7,24.7 C4.8,24.7 5.7,25.8 5.8,25.8" id="Shape"></path>
                    <path d="M3.5,20.9 C3.5,20.9 3.6,19.7 3.8,19.3 C4,18.9 5.4,16.5 5.1,13.4 C5.1,13.4 4.9,13.2 4.5,14.4 C4.1,15.6 3.5,16 3.3,17.2 C3,18.4 3,18.9 3,18.9 C3,18.9 2.9,19.1 2.9,18.9 C2.9,18.8 2.8,17.1 2.1,15.7 C1.4,14.2 0.5,12.8 0.6,11.8 C0.6,11.8 0.2,11.8 0.3,13.4 C0.3,15 0.7,17.8 3.5,20.9" id="Shape"></path>
                    <path d="M2.7,16.1 C2.7,16.1 3.2,15 3.5,14.6 C3.8,14.2 6.2,10.9 6.4,9.3 C6.4,9.3 6.2,9.2 6,9.6 C5.8,10 4.7,11.1 4.5,11.3 C4.3,11.5 3.1,12.7 3,14.1 C3,14.1 2.9,14.2 3.1,12 C3.3,9.8 2.4,8.3 3.2,6.7 C3.2,6.7 2.1,6.9 1.5,11.5 C1.5,11.5 1.5,13.1 2.4,15.1 C2.3,15 2.6,16.1 2.7,16.1" id="Shape"></path>
                    <path d="M3.6,11 C3.6,11 4.5,10.1 5.2,9.7 C5.9,9.3 8.1,7.1 8.5,5.4 C8.5,5.4 8.4,5.2 7.7,6.1 C7.2,6.8 6.6,6.5 5,8.5 C5,8.5 4.8,9 4.7,8.9 C4.6,8.9 4.8,8.4 4.8,8.4 C4.8,8.4 5.1,7.1 5.1,6.7 C5.1,6.3 5.8,3.9 6,3.6 C6,3.6 3.8,4.8 3.5,8.3 C3.4,8.4 3.5,10.9 3.6,11" id="Shape"></path>
                    <path d="M5.4,7.3 C5.4,7.3 5.3,4.3 9.2,2.7 C9.2,2.7 7.8,5.5 6.8,6.2 C5.8,6.9 5.4,7.3 5.4,7.3" id="Shape"></path>
                </g>
            </g>
        </g>
    </g>
</svg>