<svg width="250" height="35" viewBox="0 0 250 35" xmlns="http://www.w3.org/2000/svg"><g fill="none" fill-rule="evenodd"><path fill="#2C6182" d="M55.952 24.095h-3.81v-7.762H46v7.715h-3.81V6.762H46v6.62h6.143V6.76h3.81M72.81 17.19c0 5.286-1.81 7.24-6.762 7.24-5.238 0-7.096-1.954-7.096-7.24V6.762h3.81V17.19c0 3.19.762 4.143 3.095 4.143 2.286 0 3.095-.952 3.095-4.143V6.762h3.858V17.19zM93.238 6.762c.905 0 1.43.524 1.43 1.428l.665 15.905h-3.62l-.57-14.333h-.43l-2.57 10.714c-.19.81-.714 1.238-1.572 1.238H84.05c-.858 0-1.38-.38-1.572-1.238l-2.62-10.714h-.427l-.525 14.333h-3.62l.62-15.905c.047-.952.524-1.428 1.428-1.428H81c.81 0 1.333.428 1.524 1.238l2.095 8.62c.19.81.332 1.618.428 2.428h.333l.43-2.43L87.905 8c.19-.81.714-1.238 1.57-1.238h3.763zM101.57 19.524l-1.237 4.524H96.43l5-16.286c.14-.62.713-1 1.332-1h3.62c.666 0 1.19.38 1.332 1l5 16.333h-3.904l-1.24-4.524h-6v-.046zm3.668-8.238c-.143-.524-.286-1.096-.333-1.62h-.667l-.38 1.62-1.477 5.285h4.334l-1.476-5.284zM128.57 22.714c0 .905-.427 1.38-1.332 1.38h-2.38c-.81 0-1.144-.38-1.525-1.142l-4.523-9.238c-.334-.762-.858-1.81-1.048-2.666h-.286c.143.904.19 1.857.19 2.762v10.285h-3.618V8.143c0-.905.476-1.38 1.38-1.38h2.334c.81 0 1.143.38 1.524 1.142l4.38 8.952c.382.762.858 1.81 1.24 2.81h.237c-.095-1-.143-1.953-.143-2.905v-10h3.62v15.952h-.05zM131.476 24.095V6.762h3.81v17.333M145.762 9.857v14.19h-3.857V9.858h-5.19V6.762h14.19v3.095M153.57 19.524l-1.237 4.524h-3.904l5-16.334c.14-.62.713-1 1.332-1h3.62c.666 0 1.19.38 1.332 1l5 16.334h-3.904l-1.24-4.524h-6zm3.62-8.238c-.142-.524-.285-1.096-.333-1.62h-.667l-.38 1.62-1.477 5.285h4.334l-1.477-5.284zM175.43 24.095l-1.287-5.285c-.333-1.096-.81-1.477-1.857-1.477h-2.667v6.762h-3.763V6.762c2.095-.19 3.476-.238 6.62-.238 4.523 0 6.38 1.143 6.38 5.143 0 2.428-.857 4-3.333 4.285v.143c.857.19 2.047.81 2.476 2.62l1.524 5.38h-4.095zm-3.097-9.714c2 0 2.62-.57 2.62-2.475 0-1.953-.62-2.43-2.62-2.43l-2.762.05v4.856h2.763zM181.286 24.095V6.762h3.81v17.333M191.43 19.524l-1.24 4.524h-3.904l5-16.334c.143-.62.714-1 1.333-1h3.618c.667 0 1.19.38 1.333 1l5 16.334h-3.903l-1.238-4.524h-6zm3.665-8.238c-.143-.524-.285-1.096-.333-1.62h-.667l-.38 1.62-1.477 5.285h4.333l-1.475-5.284zM218.43 22.714c0 .905-.43 1.38-1.335 1.38h-2.38c-.81 0-1.144-.38-1.525-1.142l-4.523-9.238c-.334-.762-.857-1.81-1.048-2.666h-.287c.143.904.19 1.857.19 2.762v10.285h-3.713V8.143c0-.905.476-1.38 1.38-1.38h2.334c.81 0 1.143.38 1.524 1.142l4.38 8.952c.382.762.858 1.81 1.24 2.81h.237c-.095-1-.143-1.953-.143-2.905v-10h3.62v15.952h.047z"/><path fill="#54B1C8" d="M227.238 24.095V6.762h4.667v17.333M249.81 15.43c0 6.95-2.048 8.903-7.762 8.903-2.762 0-5-.095-7.096-.238V6.762c2.096-.143 4.286-.238 7.096-.238 5.714 0 7.762 1.952 7.762 8.905zm-5 0c0-4.287-.62-5.382-2.81-5.382h-2.38V20.81c.713.047 1.523.047 2.38.047 2.238-.047 2.81-1.143 2.81-5.428z"/><g fill="#54B1C8"><path d="M45 28.095c-.238-.19-.57-.285-.905-.285-.285 0-.57.047-.762.142-.19.096-.38.238-.523.43-.143.19-.24.38-.286.618-.048.238-.095.476-.095.762 0 .286.046.57.094.81.047.238.143.476.286.666.142.19.333.333.523.43.19.094.477.142.762.142.238 0 .43-.048.572-.096.19-.095.333-.19.428-.285.143-.144.238-.287.286-.478.05-.19.096-.38.144-.57h.666c-.047.618-.285 1.094-.666 1.475-.38.333-.857.524-1.476.524-.38 0-.715-.047-1-.19-.286-.142-.524-.333-.715-.523-.19-.238-.333-.524-.428-.81-.095-.333-.143-.667-.143-1 0-.333.048-.714.143-1 .095-.333.238-.57.428-.81.19-.237.43-.428.715-.57.285-.144.62-.19 1-.19.238 0 .523.046.714.094.238.05.428.19.62.287.19.095.332.285.428.523.142.19.19.43.238.715h-.667c.05-.38-.142-.62-.38-.81zM46.905 28.905c.095-.334.238-.572.428-.81.19-.238.43-.428.762-.57.286-.144.62-.24 1.048-.24.38 0 .714.096 1.047.24.286.142.524.332.762.57.19.238.334.524.43.81.094.333.142.62.142.952 0 .333-.048.667-.143.953-.094.333-.237.57-.428.81-.19.237-.428.428-.762.57-.285.143-.62.19-1.047.19-.38 0-.714-.047-1.048-.19-.285-.142-.524-.333-.762-.57-.19-.24-.333-.525-.428-.81-.095-.334-.143-.62-.143-.953 0-.333.048-.667.143-.952zm.62 1.714c.046.237.142.475.285.666.142.19.333.333.523.476.238.095.477.19.762.19.286 0 .572-.047.762-.19.238-.095.38-.286.524-.476.144-.19.24-.43.287-.667.047-.24.095-.477.095-.763 0-.238-.048-.476-.095-.714-.048-.238-.143-.476-.286-.667-.142-.19-.332-.333-.523-.476-.238-.095-.476-.19-.762-.19-.285 0-.57.047-.762.19-.238.095-.38.286-.523.476-.143.19-.24.43-.286.667-.048.238-.095.476-.095.714-.05.238 0 .524.094.762zM53 27.38l2.62 4v-4h.618v4.953h-.714l-2.572-3.952v3.953h-.62V27.38M58 27.38l2.62 4v-4h.618v4.953h-.714l-2.572-3.952v3.953h-.62V27.38M65.714 27.38v.572h-2.762v1.572h2.572v.57h-2.572v1.716h2.762v.57h-3.428v-5M69.524 28.095c-.238-.19-.572-.285-.905-.285-.287 0-.572.047-.763.142-.19.096-.38.238-.524.43-.143.19-.238.38-.285.618-.048.238-.096.476-.096.762 0 .286.048.57.096.81.047.238.142.476.285.666.143.19.334.333.524.43.19.094.476.142.762.142.237 0 .428-.048.57-.096.19-.095.334-.19.43-.285.142-.144.237-.287.285-.478l.143-.57h.666c-.047.618-.285 1.094-.666 1.475-.38.333-.858.524-1.477.524-.38 0-.713-.047-1-.19-.284-.142-.522-.333-.713-.523-.19-.238-.333-.524-.428-.81-.097-.333-.144-.667-.144-1 0-.333.047-.714.143-1 .094-.333.237-.57.427-.81.19-.237.43-.428.714-.57.287-.144.62-.19 1-.19.24 0 .525.046.716.094.238.05.428.19.62.287.19.095.332.285.427.523.143.19.19.43.238.715H70c-.048-.38-.238-.62-.476-.81zM71 27.952v-.57h3.952v.57h-1.62v4.38h-.665v-4.38M76.19 27.38v4.953h-.666V27.38M78 27.38l2.62 4v-4h.618v4.953h-.714l-2.572-3.952v3.953h-.62V27.38M85.286 32.286c-.286.095-.572.19-.857.19-.382 0-.716-.047-1-.19-.287-.143-.525-.334-.763-.572-.19-.238-.38-.476-.477-.81-.095-.285-.142-.618-.142-.952 0-.38.047-.714.142-1.047.096-.334.24-.62.43-.857.19-.238.428-.43.713-.572.286-.143.62-.238 1.048-.238.287 0 .525.048.763.095.238.048.428.143.62.286.19.142.332.285.475.523.143.19.19.476.238.762h-.666c-.048-.19-.096-.334-.19-.476-.096-.144-.19-.24-.334-.335-.143-.095-.286-.143-.43-.19-.142-.048-.332-.048-.523-.048-.285 0-.57.048-.762.19-.237.143-.38.286-.522.477-.143.19-.238.428-.286.666-.048.24-.095.524-.095.762s.047.524.095.762.19.43.333.62c.143.19.334.333.524.428.19.095.475.143.713.143s.477-.048.667-.143c.19-.095.38-.19.524-.333.143-.144.238-.335.286-.525.047-.19.095-.43.095-.62h-1.572v-.57h2.19v2.618h-.333l-.19-.62c-.19.287-.43.477-.714.573zM91.857 27.38c.476 0 .857.096 1.095.334.238.238.38.572.38.953 0 .285-.046.57-.19.81-.142.237-.332.38-.666.475.143.048.238.096.334.143.095.048.142.143.238.238.047.096.095.19.095.286.047.094.047.237.047.332v.38c0 .144 0 .24.048.382 0 .143.048.238.095.334l.143.285h-.714c-.048-.047-.095-.143-.095-.19 0-.048-.048-.19-.048-.286v-.333c0-.143 0-.238-.05-.38 0-.144-.046-.24-.046-.334l-.143-.286c-.047-.095-.142-.143-.237-.19-.095-.048-.238-.096-.38-.096h-1.62v2.095h-.62V27.38h2.334zm.095 2.24c.143 0 .238-.05.38-.144.144-.095.192-.143.24-.286.047-.095.095-.238.095-.428 0-.238-.048-.476-.19-.62-.144-.142-.382-.237-.667-.237h-1.62v1.714h1.38c.097.047.287.047.382 0zM97.667 27.38v.572h-2.762v1.572h2.57v.57h-2.57v1.716h2.762v.57h-3.43v-5M100.952 28.048c-.238-.143-.523-.238-.857-.238-.143 0-.285 0-.428.047-.143.048-.238.095-.334.143-.095.048-.19.143-.238.238-.047.095-.095.238-.095.43 0 .142.048.284.143.38.095.095.19.19.38.238.144.047.334.095.525.143l.57.14c.192.05.382.097.572.144.19.048.38.143.524.238.143.096.286.238.38.38.096.144.144.382.144.62 0 .286-.048.477-.19.667-.096.19-.286.332-.477.475-.19.095-.38.19-.618.238-.238.048-.476.096-.666.096-.286 0-.524-.05-.81-.097-.286-.047-.476-.19-.666-.333-.19-.143-.334-.333-.43-.524-.094-.238-.142-.476-.142-.762h.62c0 .19.047.38.142.524.095.143.19.286.333.38.143.096.286.192.477.24.19.047.333.047.523.047.143 0 .286 0 .43-.048l.427-.143c.143-.047.24-.143.286-.285.095-.097.095-.287.095-.43 0-.19-.046-.333-.14-.43-.097-.094-.192-.19-.382-.237-.143-.047-.334-.143-.524-.143l-.572-.142-.57-.143c-.192-.048-.382-.143-.525-.238-.143-.096-.286-.238-.38-.38-.096-.144-.144-.335-.144-.573 0-.238.048-.476.143-.666.095-.19.238-.334.43-.43l.57-.285c.19-.095.43-.095.667-.095.238 0 .476.048.714.095.238.048.43.143.572.286.14.142.284.285.38.475.095.19.142.43.142.715h-.62c0-.334-.142-.572-.38-.762zM105.143 27.38c.476 0 .857.144 1.143.382.238.238.38.62.38 1.095 0 .476-.142.81-.38 1.095-.238.238-.62.38-1.143.38h-1.524v2.05h-.668v-5h2.19zm-.19 2.382c.38 0 .666-.095.81-.238.19-.143.237-.38.237-.667 0-.286-.095-.524-.238-.667-.19-.142-.43-.238-.81-.238h-1.285v1.81h1.285zM107.333 28.905c.096-.334.238-.572.43-.81.19-.238.427-.428.76-.57.287-.144.62-.24 1.048-.24.382 0 .716.096 1.05.24.285.142.523.332.76.57.19.238.334.524.43.81.095.333.142.62.142.952 0 .333-.047.667-.142.953-.096.333-.24.57-.43.81-.19.237-.428.428-.76.57-.287.143-.62.19-1.05.19-.38 0-.713-.047-1.046-.19-.286-.142-.524-.333-.762-.57-.19-.24-.333-.525-.43-.81-.094-.334-.142-.62-.142-.953 0-.333.048-.667.143-.952zm.62 1.714c.047.237.142.475.285.666.143.19.333.333.524.476.238.095.476.19.762.19.286 0 .57-.047.762-.19.238-.095.38-.286.524-.476.142-.19.238-.43.285-.667.048-.24.095-.477.095-.763 0-.238-.047-.476-.095-.714-.047-.238-.143-.476-.285-.667-.143-.19-.334-.333-.524-.476-.238-.095-.476-.19-.762-.19-.286 0-.572.047-.762.19-.238.095-.38.286-.524.476-.143.19-.238.43-.286.667-.047.238-.095.476-.095.714s.048.524.095.762zM113.43 27.38l2.618 4v-4h.62v4.953h-.716l-2.57-3.952v3.953h-.62V27.38M119.43 27.38c.76 0 1.332.19 1.76.572.43.38.62 1 .62 1.762 0 .43-.048.762-.143 1.096-.096.333-.238.57-.43.81-.19.237-.427.38-.76.523-.287.095-.667.19-1.048.19h-1.716V27.38h1.715zm.094 4.382h.286c.095 0 .238-.048.333-.095.143-.048.238-.096.38-.19.144-.096.24-.19.334-.334.095-.143.19-.333.238-.524.048-.24.095-.477.095-.763 0-.286-.047-.57-.095-.81-.047-.237-.143-.428-.285-.618-.143-.144-.286-.287-.524-.382-.19-.096-.476-.143-.762-.143h-1.095v3.857h1.094zM126.048 27.38v.572h-2.762v1.572h2.57v.57h-2.57v1.716h2.762v.57h-3.43v-5M129.19 27.38c.477 0 .858.096 1.096.334.238.238.38.572.38.953 0 .285-.047.57-.19.81-.143.237-.333.38-.666.475.142.048.238.096.333.143.095.048.143.143.238.238.096.096.096.19.096.286.048.094.048.237.048.332v.38c0 .144 0 .24.047.382 0 .143.05.238.097.334l.143.285h-.715c-.047-.047-.095-.143-.095-.19 0-.048-.048-.19-.048-.286v-.333c0-.143 0-.238-.047-.38 0-.144-.048-.24-.048-.334l-.143-.286c-.047-.095-.143-.143-.238-.19-.095-.048-.238-.096-.38-.096h-1.62v2.095h-.666V27.38h2.38zm.143 2.24c.143 0 .238-.05.38-.144.097-.047.192-.143.24-.286.047-.095.095-.238.095-.428 0-.238-.048-.476-.19-.62-.144-.142-.382-.237-.668-.237h-1.62v1.714h1.382c.096.047.238.047.38 0zM134.095 28.048c-.238-.143-.524-.238-.857-.238-.143 0-.286 0-.428.047-.143.048-.24.095-.38.143-.097.048-.192.143-.24.238-.047.095-.095.238-.095.43 0 .142.048.284.143.38.095.095.19.19.38.238.144.047.334.095.525.143l.57.14c.192.05.382.097.573.144.19.048.38.143.524.238.142.096.285.238.38.38.096.144.143.382.143.62 0 .286-.047.477-.19.667-.095.19-.286.332-.476.475-.19.095-.38.19-.62.238-.237.048-.476.096-.666.096-.285 0-.523-.05-.81-.097-.284-.047-.475-.19-.665-.333-.19-.143-.334-.333-.43-.524-.094-.238-.142-.476-.142-.762h.62c0 .19.047.38.142.524.095.143.19.286.334.38.14.096.284.192.475.24.19.047.333.047.524.047.14 0 .284 0 .427-.048l.43-.143c.142-.047.237-.143.284-.285.097-.097.097-.287.097-.43 0-.19-.048-.333-.143-.43-.095-.094-.19-.19-.38-.237-.192-.047-.334-.143-.525-.143l-.572-.142-.572-.143c-.19-.048-.38-.143-.524-.238-.142-.096-.285-.238-.38-.38-.096-.144-.143-.335-.143-.573 0-.238.046-.476.14-.666.097-.19.24-.334.43-.43l.57-.285c.192-.095.43-.095.668-.095.238 0 .476.048.714.095.238.048.43.143.572.286.143.142.286.285.38.475.096.19.144.43.144.715h-.62c0-.334-.142-.572-.333-.762z"/></g><g><path d="M12.43.857c-.478 0-.954.19-1.382.38-.477.192-.905.382-1.38.62-.906.476-1.81 1.048-2.62 1.667-.81.62-1.477 1.286-2.19 2-.334.38-.668.666-.81 1.19-.143.476-.143.905-.096 1.38.19 0 .667-.856.81-1 .333-.38.62-.76 1-1.142.667-.666 1.333-1.333 2.143-1.904.857-.62 1.714-1.19 2.666-1.62.335-.142 1-.285 1.192-.618.095-.19.19-.334.333-.477.048-.095.43-.428.334-.476-.05 0 .046 0 0 0z" fill="#4296A6"/><path d="M31.38 6.57c-.428-.475-.856-1-1.285-1.475-.524-.524-1.047-1-1.62-1.428-.95-.81-1.95-1.334-3.046-1.905C24.285 1.19 23.142.62 21.856.476c-.57-.095-1.19-.047-1.81 0-.618.095-1.476.238-1.666.38-.38.382.19.573.477.715.476.192.905.43 1.333.62.905.43 1.667 1.096 2.43 1.715.57.524 1.094 1.047 1.57 1.62.38.427.953 1.427 1.572 1.332-.143 0 .095.143.048.048 0 .238 1.76-.38 1.952-.43.333-.094.667-.19 1.048-.237.142-.048.666-.095 1.19-.048.238 0 .57.143.762.19.143.05.905.715 1.048.715 0-.095-.38-.476-.43-.524-.047-.046.05.05 0 0z" fill="#A2DCEA"/><path d="M32.095 8.286c-.285-.334-.57-.667-.905-1.048-.285-.333-.714-.714-.952-1.048.524.096 1.095.38 1.38.667.192.19.382.476.477.762.048.142.38.95 0 .666-.047-.048.048.047 0 0zM11.048 32.286c-.096-.096-.477-.19-.572-.238-.19-.096-.428-.19-.62-.334-.427-.238-.856-.476-1.285-.762-.665-.428-1.332-.952-1.95-1.476-.715-.62-1.382-1.38-1.953-2.143-.143-.19-.238-.38-.38-.523-.097-.096-.24-.43-.382-.477-.095-.047-.334 0-.43 0-.142 0-.19-.047-.332-.095-.048 0-.238-.095-.286-.048-.095.24.524 1 .667 1.19.238.334.524.668.81 1 .523.715 1.19 1.382 1.904 1.953.762.62 1.524 1.286 2.38 1.762.24.143.477.286.763.43.19.094.477.332.715.38.334.047.81-.334 1.095-.476-.047-.097-.095-.097-.142-.144 0-.048.047 0 0 0zM34.667 20.62c0-.05 0-.05-.048-.096-.144.143-.24.333-.43.428-.142.096-.38.143-.476.238-.095.096-.095 0-.143.19-.046.144-.094.287-.094.43-.047.238-.143.428-.238.666-.286.81-.62 1.62-1 2.38-.428.858-.952 1.668-1.57 2.43-.62.762-1.335 1.428-1.954 2.143.43 0 .857.19 1.286 0 .43-.192.81-.81 1.143-1.144.62-.715 1.143-1.572 1.62-2.38.427-.763.808-1.573 1.19-2.43.237-.476.38-1.047.523-1.57.095-.382.286-.906.19-1.287 0 0 .048.047 0 0z" fill="#4296A6"/><path d="M34.095 16.43c-.047-1.81-.476-3.62-1.143-5.287-.38-.953-.857-1.857-1.38-2.714-.24-.382-.477-.716-.762-1.097-.24-.333-.524-.81-.905-1.047-.238-.19-.81-.048-1.143 0-.476.095-.905.19-1.333.333-.335.094-.62.237-.906.332-.286.096-.572 0-.81-.047-.666-.238-1.047-.905-1.476-1.38-.428-.477-.857-.954-1.333-1.43-.762-.666-1.572-1.333-2.476-1.857C20 2 19.475 1.762 19 1.57c-.333-.14-1-.332-.57-.713-1.573 0-3.05.095-4.573.43-1.428.332-2.714.903-4 1.57C8.62 3.524 7.43 4.43 6.38 5.38c-.475.43-.904.953-1.332 1.477-.238.238-.43.524-.62.81-.142.19-.38.428-.428.666.238 0 .62-.38.81-.476.333-.238.76-.38 1.142-.57.667-.335 1.334-.62 2.048-.858.667-.192 1.476-.668 2.19-.573.858.095.477 1 .43 1.524-.19 1.477-.24 2.953-.096 4.43.047.62.095 1.19.238 1.81.048.332.095.666.19 1 .048.332.19.618.143.95-.095.906-.857 1.192-1.62 1.382-.237.048-2.523.572-2.475.715 0-.048-1.714.57-1.905.666-.666.238-1.285.572-1.857.905-.476.286-1 .572-1.333 1-.286.286-.143.572-.048.952.095.43.238.858.38 1.286.477 1.476 1.192 2.905 2.05 4.143.76 1.142 1.713 2.285 2.76 3.142 1.24 1 2.62 2.095 4.143 2.62-.714-.763-1.428-1.477-2.047-2.287-.333-.428-.62-.857-.953-1.333-.142-.19-.285-.43-.38-.667-.096-.19.428-.762.62-.762.522 0 1.094-.428 1.618-.523 1.333-.24 2.714-.572 3.952-1.096.62-.238 1.19-.57 1.81-.81.57-.237 1.38-.19 1.81.334.332.38.523 1 .81 1.43.38.57.713 1.19 1.094 1.76.714 1.048 1.57 2.048 2.476 2.905.524.477 1.095.905 1.714 1.143.38.143.572 0 .905-.143l1.142-.57c2.476-1.382 4.667-3.382 6.095-5.81 1.572-3.048 2.333-6.143 2.238-9.524 0-.24 0 .808 0 0zM10.762 9.523v.333-.333zm0 .476v0zm.048 1.095V11v.095zM2.57 19.57c0 .05 0 .05.05.097 0-.048 0-.096-.05-.096zM11 14.953V15c.048 0 0 0 0-.048zm21 5.62c-.238.904-.286 2.428-1.19 2.952-.43.238-.953.047-1.38-.048-.525-.143-1.097-.238-1.62-.333-3.43-.762-6.858-1.333-10.334-1.953-.38-.047-.762-.142-1.143-.19-.476-.048-1-.095-1.428-.286-.953-.428-.857-1.38-.667-2.19.43-1.667.762-3.43 1-5.143.095-.76.238-1.523.333-2.332.097-.715 0-1.715.668-2.19.762-.572 2.095-.144 2.905 0 .905.19 1.857.332 2.762.523 2 .382 4 .906 5.952 1.477 1.095.333 2.19.714 3.238 1.143.43.143.905.286 1.143.667.38.476.476 1.143.43 1.762.094.237-.192 4.094-.668 6.14z" fill="#2C6182"/><path d="M32.762 13.714c-.048-.476-.19-.952-.62-1.285-.332-.287-.904-.43-1.285-.573-.905-.38-1.857-.667-2.81-.952-1.81-.572-3.618-1-5.476-1.38-.903-.192-1.808-.335-2.713-.525l-1.57-.286c-.43-.095-.954-.19-1.382-.143-1.048.144-1.095 1.097-1.238 1.906-.096.762-.19 1.572-.334 2.334-.19.952-.333 1.904-.523 2.857-.048.285-.81 3.857-.762 4 .095.428.38.857.81 1 .428.19.952.238 1.38.285.476.048.905.19 1.38.238.953.19 1.953.334 2.953.524.382.096 1.716.286 1.954.334.19.047 1.524.285 1.905.38l1.427.286c.572.096 1.19.238 1.762.334.285.047.57.142.856.19.143.048.334.048.476.095.286.048.19.048.334-.19-.19.333.095.286.38.333.24.048.524.19.763.143.475-.05.76-.525.95-.906.43-.952.572-2.095.763-3.143.143-.903.333-1.76.428-2.665.144-.953.335-2.143.192-3.19-.048-.144 0 .237 0 0zm-18.43 4.857zM10.905 14.952c-.62-2.523-.81-5.38-.334-7.952.05-.286.192-.62.05-.905-.144-.333-.525-.333-.858-.333-.762.095-1.524.428-2.238.714C6.238 7 4.81 7.62 3.762 8.43c-1.143.856-2.095 1.856-2.524 3.284C.762 13.19.524 14.62.38 16.144c-.094 1.285 0 2.666.24 3.95.047.24.094.858.285 1.05.143.142.095.094.238-.096.095-.19.19-.38.333-.524.334-.43.762-.762 1.238-1.095 1.334-.906 2.953-1.43 4.476-1.906.858-.286 1.762-.476 2.667-.714.762-.286 1.286-1 1.048-1.858 0 0 .047.19 0 0zM24.857 32.714c-1.428-.095-2.667-1.095-3.62-2.143-1.047-1.094-2-2.332-2.76-3.618-.572-.952-1.144-2.714-2.62-2.333-.667.19-1.333.618-1.952.856-.81.334-1.667.667-2.524.857-.618.143-1.237.286-1.856.334l-1.714.143c-.667.047-.43.81-.19 1.238.332.62.76 1.238 1.237 1.81 1.762 2.237 3.857 4.332 6.81 4.618.333.048 1.095.095 1.143.095h.57c.906 0 1.763-.094 2.62-.19.857-.094 1.762-.285 2.524-.57.38-.048 2.57-.762 2.333-1.096-.095 0 .048.048 0 0z" fill="#A2DCEA"/></g></g></svg>